<svg xmlns="http://www.w3.org/2000/svg" xmlns:xlink="http://www.w3.org/1999/xlink" width="1024" height="1024" viewBox="0 0 1024 1024">
  <defs>
    <linearGradient id="linear-gradient" x1="34.13336" y1="900.89618" x2="989.86668" y2="900.89618" gradientUnits="userSpaceOnUse">
      <stop offset="0" stop-color="#777"/>
      <stop offset="0.03527" stop-color="#919191"/>
      <stop offset="0.0761" stop-color="#a7a7a7"/>
      <stop offset="0.12434" stop-color="#b8b8b8"/>
      <stop offset="0.18399" stop-color="#c3c3c3"/>
      <stop offset="0.26766" stop-color="#cacaca"/>
      <stop offset="0.5" stop-color="#ccc"/>
      <stop offset="0.73178" stop-color="#cacaca"/>
      <stop offset="0.81525" stop-color="#c3c3c3"/>
      <stop offset="0.87475" stop-color="#b8b8b8"/>
      <stop offset="0.92287" stop-color="#a7a7a7"/>
      <stop offset="0.96361" stop-color="#919191"/>
      <stop offset="0.99879" stop-color="#777"/>
    </linearGradient>
    <linearGradient id="linear-gradient-2" x1="512.00004" y1="961.32895" x2="512.00004" y2="938.94644" gradientUnits="userSpaceOnUse">
      <stop offset="0" stop-color="#999"/>
      <stop offset="1" stop-color="#333"/>
    </linearGradient>
  </defs>
  <title>dmg-icon-base</title>
  <g id="dmg-icon-base">
    <path d="M927.76806,1024H96.232c-27.75266,0-51.6125-22.41788-53.30344-50.2529L34.23372,830.61952c-1.76707-29.08816,20.01087-52.82715,48.65425-52.82715h858.2241c28.64338,0,50.42131,23.739,48.65424,52.82715L981.0715,973.7471C979.38056,1001.58212,955.52073,1024,927.76806,1024Z" fill="url(#linear-gradient)"/>
    <path d="M982.79955,807.46937,907.93017,48.84516C905.623,25.46728,884.85863,6.71479,861.52755,6.71479H162.47247c-23.33109,0-44.09541,18.75249-46.40255,42.13037L41.20046,807.46937c-3.30441,33.48243,17.00189,60.97218,45.39761,60.97218H937.40194C965.79773,868.44155,986.104,840.9518,982.79955,807.46937Z" fill="#aaa"/>
    <path d="M989.50926,813.234,913.57285,42.787C911.23269,19.04467,890.17251,0,866.50885,0H157.4911c-23.66366,0-44.72384,19.04467-47.06387,42.787L34.49069,813.234c-3.35144,34.00416,17.24426,61.92226,46.04474,61.92226H943.46472C972.2652,875.15627,992.86083,847.23817,989.50926,813.234Zm-25.119,37.33572a29.29665,29.29665,0,0,1-22.04467,10.03791H81.65455a29.29694,29.29694,0,0,1-22.04474-10.03791c-8.19392-9.04119-12.07028-21.45813-10.63524-36.01837L122.67286,44.1043c1.66708-16.91414,17.90348-31.79392,34.81824-31.79392H866.50885c16.91475,0,33.15116,14.87978,34.81837,31.79392l73.69816,770.44706C976.46056,829.1116,972.58419,841.52854,964.39027,850.56973Z" fill="#b2b2b2"/>
    <rect x="165.07108" y="938.94644" width="693.85792" height="22.38251" rx="9.99999" fill="url(#linear-gradient-2)"/>
    <path d="M905.77056,748.69507h-787.541A31.68045,31.68045,0,0,1,86.85586,714.1074L143.7156,61.46881a31.61586,31.61586,0,0,1,31.37366-29.01417H848.91083a31.61587,31.61587,0,0,1,31.37366,29.01417L937.14422,714.1074A31.68045,31.68045,0,0,1,905.77056,748.69507Z" fill="#fff"/>
  </g>
</svg>
