<svg xmlns="http://www.w3.org/2000/svg" xmlns:xlink="http://www.w3.org/1999/xlink" width="1024" height="1024" viewBox="0 0 1024 1024">
  <defs>
    <radialGradient id="radial-gradient" cx="512" cy="89.5279" r="448.29427" gradientUnits="userSpaceOnUse">
      <stop offset="0" stop-color="#999"/>
      <stop offset="1" stop-color="#848484"/>
    </radialGradient>
    <linearGradient id="linear-gradient" x1="69.89497" y1="281.52069" x2="120.96217" y2="265.90788" gradientUnits="userSpaceOnUse">
      <stop offset="0" stop-color="#bbb"/>
      <stop offset="1" stop-color="#888"/>
    </linearGradient>
    <linearGradient id="linear-gradient-2" x1="954.10503" y1="281.52069" x2="903.03783" y2="265.90788" xlink:href="#linear-gradient"/>
    <radialGradient id="radial-gradient-2" cx="512" cy="426.95918" r="354.0159" gradientUnits="userSpaceOnUse">
      <stop offset="0.5" stop-color="#aaa"/>
      <stop offset="1" stop-color="#848484"/>
    </radialGradient>
    <radialGradient id="radial-gradient-3" cx="510.81781" cy="-0.67411" r="468.87165" gradientTransform="translate(0 -0.55558) scale(1 0.17583)" gradientUnits="userSpaceOnUse">
      <stop offset="0" stop-color="#ddd"/>
      <stop offset="1" stop-color="#bbb"/>
    </radialGradient>
    <linearGradient id="linear-gradient-3" x1="512.00097" y1="82.28572" x2="512.00097" y2="457.14286" gradientUnits="userSpaceOnUse">
      <stop offset="0" stop-color="#ccc"/>
      <stop offset="1" stop-color="#ccc"/>
    </linearGradient>
    <linearGradient id="linear-gradient-4" x1="16.00146" y1="487.42857" x2="165.71429" y2="487.42857" gradientUnits="userSpaceOnUse">
      <stop offset="0" stop-color="#ccc"/>
      <stop offset="1" stop-color="#888"/>
    </linearGradient>
    <linearGradient id="linear-gradient-5" x1="1008" y1="487.42857" x2="858.28718" y2="487.42857" gradientUnits="userSpaceOnUse">
      <stop offset="0" stop-color="#ccc"/>
      <stop offset="0.97306" stop-color="#8a8a8a"/>
      <stop offset="1" stop-color="#888"/>
    </linearGradient>
    <linearGradient id="linear-gradient-6" x1="512" y1="555.14185" x2="512" y2="422.58015" gradientUnits="userSpaceOnUse">
      <stop offset="0" stop-color="#eee"/>
      <stop offset="1" stop-color="#999"/>
    </linearGradient>
    <radialGradient id="radial-gradient-4" cx="512" cy="550.84233" r="514.6211" gradientUnits="userSpaceOnUse">
      <stop offset="0" stop-color="#ccc"/>
      <stop offset="1" stop-color="#999"/>
    </radialGradient>
  </defs>
  <title>exe-icon-base</title>
  <g id="exe-icon-base">
    <polygon points="958.857 90.286 845.714 457.143 178.286 457.143 65.143 90.286 958.857 90.286" fill="url(#radial-gradient)"/>
    <polygon points="11.429 90.286 133.714 457.143 179.429 457.143 66.286 90.286 11.429 90.286" fill="url(#linear-gradient)"/>
    <polygon points="1012.571 90.286 890.286 458.286 844.571 457.143 957.714 90.286 1012.571 90.286" fill="url(#linear-gradient-2)"/>
    <polygon points="866.286 427.429 157.714 427.429 164.571 547.429 859.429 547.429 866.286 427.429" fill="url(#radial-gradient-2)"/>
    <path d="M1021.71429,85.71429H2.28571L32.932,13.88712A22.85715,22.85715,0,0,1,53.95547,0H970.04453A22.85715,22.85715,0,0,1,991.068,13.88712Z" fill="url(#radial-gradient-3)"/>
    <path d="M2.27509,89.06519,125.71575,457.14286h9.14286L13.5781,94.43913a2.28571,2.28571,0,0,1,2.16773-3.01056h992.50835a2.28571,2.28571,0,0,1,2.16774,3.01055L889.14286,457.14286h9.14285L1021.72686,89.0638a5.14285,5.14285,0,0,0-4.876-6.77808L7.151,82.2871A5.14285,5.14285,0,0,0,2.27509,89.06519Z" fill="url(#linear-gradient-3)"/>
    <polygon points="165.714 547.429 158.857 427.429 16.001 547.429 165.714 547.429" fill="url(#linear-gradient-4)"/>
    <polygon points="858.287 547.429 865.143 427.429 1008 547.429 858.287 547.429" fill="url(#linear-gradient-5)"/>
    <path d="M864.17824,422.58015H159.82176a9.14219,9.14219,0,0,0-5.73517,2.02267L1.62693,547.41755a4.34253,4.34253,0,0,0,2.72421,7.7243H1019.64886a4.34253,4.34253,0,0,0,2.72421-7.7243L869.91341,424.60282A9.14219,9.14219,0,0,0,864.17824,422.58015ZM23.14381,541.96182,156.97266,429.89376a6.85671,6.85671,0,0,1,4.40212-1.59975H862.62522a6.85671,6.85671,0,0,1,4.40212,1.59975l133.82885,112.06806a2.28555,2.28555,0,0,1-1.46738,4.03785H24.61119A2.28555,2.28555,0,0,1,23.14381,541.96182Z" fill="url(#linear-gradient-6)"/>
    <path d="M983.72345,1024H40.27655a22.85714,22.85714,0,0,1-22.84009-21.97443L0,550.85714H1024l-17.43646,451.16843A22.85714,22.85714,0,0,1,983.72345,1024Z" fill="url(#radial-gradient-4)"/>
    <polygon points="585.143 752 585.143 605.714 438.857 605.714 438.857 752 292.571 752 512 971.429 731.429 752 585.143 752" fill-opacity="0.5"/>
  </g>
</svg>
