<svg xmlns="http://www.w3.org/2000/svg" xmlns:xlink="http://www.w3.org/1999/xlink" width="1024" height="1024" viewBox="0 0 1024 1024">
  <defs>
    <radialGradient id="radial-gradient" cx="604.04744" cy="434.21804" r="313.75809" gradientTransform="matrix(1.57509, -0.09246, 0.33329, 2.27342, -438.55071, -497.16893)" gradientUnits="userSpaceOnUse">
      <stop offset="0.2" stop-color="#bfbd96"/>
      <stop offset="0.56471" stop-color="#968c64"/>
      <stop offset="1" stop-color="#39311d"/>
    </radialGradient>
  </defs>
  <title>icon</title>
  <g id="matanui">
    <g>
      <path d="M291.96342,50.18379l4.42592,1.86707L292.70108,49.717v.46676Z" fill="#aeb8b1"/>
      <path d="M851.04621,932.48356c39.925-53.17984,45.42959-129.39123,44.92371-197.09212a1168.81078,1168.81078,0,0,0-9.50786-140.27869c-10.02065-77.95258-23.8254-159.00388-53.63627-232.07246-27.35773-67.05574-67.00555-128.53436-114.33706-183.20552A872.90344,872.90344,0,0,0,600.30213,66.9874Q556.04291,31.98,496.29316,8.17468,421.0525-8.62886,357.61444,9.10825,325.15786,19.8438,292.70108,49.717l3.68822,2.33381-4.42588-1.86709-4.42587,5.13443q-35.40737,33.60726-56.06162,81.2175s-16.72016,44.03175-23.60485,71.41544q-20.74442,74.99637-35.40733,150.29913l-5.13508,22.47485c-3.92081,17.16008-6.88517,34.49568-9.67859,51.85375C146.42164,502.35194,139.502,543.864,131.89289,621.04028c-1.89081,19.17762-4.67184,38.43048-3.68828,58.34593.64212,25.16493,3.58932,51.94005,8.11415,79.81721a284.46919,284.46919,0,0,0,21.39186,77.01638c19.60352,45.10788,63.58089,87.13586,102.91331,115.13612,43.7385,31.13689,94.39548,51.07123,146.83262,61.796,62.34506,12.75114,126.77419,13.09824,189.92359,7.02467,63.95964-6.15151,133.49459-12.51351,192.7297-39.24478A153.8651,153.8651,0,0,0,851.04621,932.48356Z" fill="url(#radial-gradient)"/>
      <path d="M833.40023,867.96488l-2.95062-4.621a7.7783,7.7783,0,0,0-5.90124-1.54036l-6.63882,1.54036-2.95062,4.621,2.95062,4.621,6.63882,1.54031,5.90124-1.54031,2.95062-4.621" fill="#473c24"/>
      <path d="M647.51182,912.91a25.018,25.018,0,0,0-13.27771-3.594q-8.11422,0-13.27777,3.594t-5.16354,8.72842q0,4.6209,5.16354,8.72838,5.16366,3.5941,13.27777,3.59407l13.27771-3.59407,5.1636-8.72838q0-5.13434-5.1636-8.72842" fill="#473c24"/>
      <polyline points="432.117 857.971 407.775 871.321 402.611 861.566 391.546 857.971 405.562 889.291 432.117 903.154 447.608 901.614 454.247 891.345 446.133 863.619 445.395 863.619 432.117 857.971" fill="#473c24"/>
      <path d="M370.89223,703.79809l-8.85184,6.16132q-16.966,54.93859,63.43809,62.64026l6.63888-4.10756q12.54012-51.85791-61.22513-64.694" fill="#473c24"/>
      <path d="M317.78125,627.10824q-.73764,6.60633,5.16357,11.8914a20.9761,20.9761,0,0,0,13.27774,4.62442l13.27774-4.62442q5.90123-5.28508,5.90122-11.8914T349.5003,615.8775a19.32144,19.32144,0,0,0-26.55548,0q-5.90123,4.62441-5.16357,11.23074" fill="#473c24"/>
      <polyline points="234.427 374.873 244.016 366.346 429.167 347.465 221.886 353.556 221.149 371.827 234.427 374.873" fill="#473c24"/>
      <path d="M227.05,301.78671l-2.95061,12.181L413.676,303.61385a444.98253,444.98253,0,0,0-186.626-1.82714" fill="#473c24"/>
      <path d="M280.89864,252.45377q-29.50609,0-46.4721,18.8805l188.10135-6.09049-141.62925-12.79" fill="#473c24"/>
      <path d="M580.72814,358.42824l10.32715-5.48143,3.68826-13.39908-3.68826-14.00811-10.32715-5.48145q-5.16353,0-9.58947,5.48145t-4.42593,14.00811a20.64638,20.64638,0,0,0,4.42593,13.39908q4.42593,5.48142,9.58947,5.48143" fill="#473c24"/>
      <path d="M653.01809,148.91548l-36.145-4.26337L562.28684,168.405q47.20974,14.61723,88.51827-8.52669l2.213-10.96285" fill="#473c24"/>
      <path d="M520.24065,172.66839l25.81783,98.05684,5.16357-11.57194q14.01539-31.06146,5.90121-66.38632l-22.12957-46.28769-118.02437,2.4362L403.69159,167.796Z" fill="#473c24"/>
    </g>
  </g>
</svg>
